<?xml version="1.0" standalone="no"?>
<!DOCTYPE svg PUBLIC "-//W3C//DTD SVG 20010904//EN"
 "http://www.w3.org/TR/2001/REC-SVG-20010904/DTD/svg10.dtd">
<svg version="1.0" xmlns="http://www.w3.org/2000/svg"
 width="727.000000pt" height="727.000000pt" viewBox="0 0 727.000000 727.000000"
 preserveAspectRatio="xMidYMid meet">
<metadata>
Created by potrace 1.14, written by Peter Selinger 2001-2017
</metadata>
<g transform="translate(0.000000,727.000000) scale(0.100000,-0.100000)"
fill="#000000" stroke="none">
<path d="M1537 7249 c-482 -76 -832 -241 -941 -444 -21 -40 -21 -42 -24 -902
l-2 -863 -285 0 -285 0 0 -214 0 -214 49 -17 c66 -22 124 -74 158 -143 l28
-57 3 -407 3 -408 -120 0 -121 0 0 -200 c0 -173 2 -200 15 -200 27 0 109 -47
142 -82 18 -18 42 -55 55 -83 23 -49 23 -57 26 -457 l3 -408 -120 0 -121 0 0
-315 0 -315 61 -72 c33 -40 78 -109 100 -153 74 -153 73 -136 77 -747 l3 -548
1645 0 1644 0 0 3353 c0 2996 -2 3359 -15 3412 -61 231 -356 406 -818 485
-108 18 -160 20 -580 19 -400 -1 -478 -4 -580 -20z m80 -654 c68 -20 143 -88
174 -157 24 -53 24 -56 27 -460 l3 -408 -285 0 -286 0 0 404 c0 437 2 452 56
523 14 19 43 45 64 59 82 54 156 66 247 39z m1100 -18 c28 -15 67 -45 86 -68
66 -76 67 -86 67 -536 l0 -403 -286 0 -285 0 3 408 c3 404 3 407 27 460 29 65
107 137 170 157 66 21 154 14 218 -18z m-1085 -1983 c64 -21 122 -75 155 -142
l28 -57 3 -407 3 -408 -286 0 -286 0 3 418 c3 406 4 418 25 457 69 129 216
187 355 139z m1073 -8 c59 -27 107 -72 138 -130 22 -40 22 -50 25 -458 l3
-418 -286 0 -286 0 3 408 3 407 28 57 c32 65 91 121 151 142 66 23 162 20 221
-8z m-1047 -1430 c60 -31 105 -78 134 -141 23 -49 23 -57 26 -457 l3 -408
-285 0 -286 0 0 404 c0 279 4 413 12 437 56 164 243 243 396 165z m1044 6 c65
-29 104 -66 137 -134 l31 -61 0 -409 0 -408 -286 0 -285 0 3 408 c3 400 3 408
26 457 38 83 110 143 197 166 45 12 128 3 177 -19z"/>
<path d="M4590 7251 c-206 -36 -429 -107 -543 -174 -125 -74 -228 -178 -258
-262 -7 -19 -17 -35 -22 -35 -5 0 -7 -11 -3 -23 4 -17 -1 -30 -19 -47 l-25
-24 22 -23 22 -23 0 -3315 c1 -1823 -3 -3315 -7 -3315 -5 0 -5 6 -1 13 5 8 2
8 -9 -2 -9 -7 -17 -15 -17 -17 0 -2 757 -4 1682 -4 l1682 0 -22 23 c-22 23
-22 24 -22 470 0 440 0 447 20 447 16 0 20 7 20 35 0 29 -4 35 -21 35 -20 0
-21 3 -14 57 17 135 80 275 173 382 l42 50 0 325 0 326 -88 0 c-140 0 -132
-24 -132 378 0 325 0 332 20 332 16 0 20 7 20 35 0 28 -4 35 -20 35 -17 0 -19
4 -14 28 21 90 83 167 166 205 l48 22 0 197 0 198 -93 0 c-78 0 -97 3 -110 18
-15 17 -17 56 -17 355 0 330 0 337 20 337 16 0 20 7 20 35 0 28 -4 35 -20 35
-17 0 -19 4 -14 28 21 88 86 167 164 201 l50 22 0 214 0 215 -253 0 c-252 0
-254 0 -275 23 l-22 23 0 775 0 776 25 23 25 24 -21 22 c-12 13 -26 21 -30 18
-5 -3 -9 4 -9 16 0 26 -34 93 -69 137 -92 117 -338 244 -605 313 -277 71 -301
73 -846 76 -440 2 -507 1 -600 -15z m155 -641 c108 -45 131 -59 166 -99 22
-24 46 -67 56 -97 15 -50 15 -55 0 -72 -16 -17 -16 -20 -2 -32 13 -11 15 -61
15 -364 0 -260 -3 -355 -12 -364 -9 -9 -81 -12 -262 -12 -243 0 -250 1 -273
22 l-23 21 0 339 c0 331 0 338 20 338 16 0 20 7 20 35 0 24 -5 35 -15 35 -40
0 13 119 80 178 43 38 120 72 162 72 8 0 12 4 9 8 -7 12 23 8 59 -8z m1031 9
c6 -5 33 -16 59 -23 93 -29 162 -97 190 -189 12 -42 12 -47 -6 -63 -19 -17
-19 -18 1 -39 19 -20 20 -34 20 -360 0 -301 -2 -340 -17 -357 -15 -16 -36 -18
-261 -18 -239 0 -246 1 -269 22 l-23 21 0 339 c0 331 0 338 20 338 16 0 20 7
20 35 0 28 -4 35 -20 35 -17 0 -19 4 -14 28 12 51 61 127 103 159 23 18 69 41
102 51 33 10 57 21 54 23 -9 9 29 7 41 -2z m-1072 -1991 c-5 -9 -2 -9 9 1 9 7
17 9 17 3 0 -14 -25 -33 -33 -25 -11 10 -8 33 4 33 5 0 7 -6 3 -12z m1070 1
c-2 -4 20 -14 49 -23 97 -28 170 -97 201 -190 16 -47 16 -50 -4 -71 l-20 -22
20 -18 c19 -17 20 -30 20 -360 0 -252 -3 -344 -12 -353 -9 -9 -82 -12 -267
-12 -223 0 -257 2 -273 17 -17 15 -18 39 -18 355 0 331 0 338 20 338 16 0 20
7 20 35 0 28 -4 35 -20 35 -17 0 -19 4 -14 28 27 111 105 190 222 221 23 7 41
15 38 19 -3 5 6 8 19 8 13 0 22 -3 19 -7z m-1088 -28 c-3 -4 6 -7 19 -7 13 0
21 4 19 8 -10 16 42 7 91 -16 64 -29 112 -77 141 -141 28 -58 30 -88 9 -105
-14 -12 -14 -15 0 -30 13 -15 15 -64 13 -371 l-3 -354 -264 -3 c-235 -2 -266
-1 -283 14 -17 16 -18 39 -18 356 0 331 0 338 20 338 16 0 20 7 20 35 0 24 -5
35 -15 35 -42 0 13 129 78 185 53 46 195 91 173 56z m48 -1409 c6 -6 25 -13
42 -16 83 -18 171 -108 196 -200 10 -39 10 -47 -5 -64 -16 -17 -16 -21 -2 -32
13 -11 15 -61 15 -359 0 -257 -3 -350 -12 -359 -9 -9 -81 -12 -262 -12 -243 0
-250 1 -273 22 l-23 21 0 334 c0 326 0 333 20 333 16 0 20 7 20 35 0 24 -5 35
-15 35 -36 0 2 110 58 168 37 39 106 76 160 86 21 4 35 11 32 16 -7 11 33 4
49 -8z m1046 3 c8 -7 31 -15 50 -19 44 -8 117 -58 153 -104 15 -19 34 -58 42
-86 14 -47 14 -51 -5 -71 l-20 -22 20 -18 c19 -17 20 -30 20 -353 0 -298 -2
-337 -17 -354 -15 -16 -36 -18 -261 -18 -239 0 -246 1 -269 22 l-23 21 0 334
c0 326 0 333 20 333 16 0 20 7 20 35 0 28 -4 35 -20 35 -17 0 -19 4 -14 28 9
39 40 104 61 128 32 36 103 82 136 89 54 11 67 16 63 24 -8 13 28 9 44 -4z"/>
<path d="M4685 6599 c-4 -5 -4 -13 -1 -16 3 -4 6 0 6 8 0 11 2 11 10 -1 6 -9
10 -10 10 -3 0 17 -17 25 -25 12z"/>
<path d="M5740 6605 c-7 -8 -11 -15 -9 -16 31 -7 46 -3 44 10 -3 21 -20 24
-35 6z m30 1 c0 -2 -7 -7 -16 -10 -8 -3 -12 -2 -9 4 6 10 25 14 25 6z"/>
<path d="M5740 4615 c-7 -8 -11 -15 -9 -16 2 0 14 -2 26 -3 18 -2 20 0 12 16
-12 22 -13 22 -29 3z"/>
<path d="M4691 3186 c-10 -12 -6 -26 10 -26 11 0 19 29 10 35 -5 2 -14 -1 -20
-9z"/>
<path d="M5740 3185 c-7 -8 -11 -15 -9 -16 31 -7 46 -3 44 10 -3 21 -20 24
-35 6z m30 1 c0 -2 -7 -7 -16 -10 -8 -3 -12 -2 -9 4 6 10 25 14 25 6z"/>
<path d="M3761 7244 c0 -11 3 -14 6 -6 3 7 2 16 -1 19 -3 4 -6 -2 -5 -13z"/>
<path d="M3761 7164 c0 -11 3 -14 6 -6 3 7 2 16 -1 19 -3 4 -6 -2 -5 -13z"/>
<path d="M3761 7084 c0 -11 3 -14 6 -6 3 7 2 16 -1 19 -3 4 -6 -2 -5 -13z"/>
<path d="M3761 7004 c0 -11 3 -14 6 -6 3 7 2 16 -1 19 -3 4 -6 -2 -5 -13z"/>
<path d="M3761 6924 c0 -11 3 -14 6 -6 3 7 2 16 -1 19 -3 4 -6 -2 -5 -13z"/>
<path d="M3761 6844 c0 -11 3 -14 6 -6 3 7 2 16 -1 19 -3 4 -6 -2 -5 -13z"/>
</g>
</svg>
